<svg id="visual" viewBox="0 0 1000 300" width="1000" height="300" xmlns="http://www.w3.org/2000/svg" xmlns:xlink="http://www.w3.org/1999/xlink" version="1.1"><rect x="0" y="0" width="1000" height="300" fill="#F3F3F3"></rect><path d="M0 184L143 207L286 207L429 204L571 193L714 188L857 195L1000 203L1000 301L857 301L714 301L571 301L429 301L286 301L143 301L0 301Z" fill="#590004"></path><path d="M0 199L143 204L286 199L429 238L571 225L714 219L857 214L1000 224L1000 301L857 301L714 301L571 301L429 301L286 301L143 301L0 301Z" fill="#4b0206"></path><path d="M0 219L143 253L286 230L429 245L571 247L714 220L857 224L1000 243L1000 301L857 301L714 301L571 301L429 301L286 301L143 301L0 301Z" fill="#3e0406"></path><path d="M0 259L143 241L286 249L429 267L571 268L714 253L857 260L1000 257L1000 301L857 301L714 301L571 301L429 301L286 301L143 301L0 301Z" fill="#310504"></path><path d="M0 269L143 285L286 286L429 263L571 264L714 285L857 271L1000 282L1000 301L857 301L714 301L571 301L429 301L286 301L143 301L0 301Z" fill="#250001"></path></svg>